<?xml version="1.0" encoding="utf-8"?>
<!-- Generator: Adobe Illustrator 27.3.1, SVG Export Plug-In . SVG Version: 6.00 Build 0)  -->
<svg version="1.1" id="Layer_1" xmlns="http://www.w3.org/2000/svg" xmlns:xlink="http://www.w3.org/1999/xlink" x="0px" y="0px"
	 viewBox="0 0 3000 3000" style="enable-background:new 0 0 3000 3000;" xml:space="preserve">
<style type="text/css">
	.st0{fill:#22409A;}
	.st1{fill:#EB1C24;}
	.st2{fill:#02A04B;}
	.st3{fill:#FFE013;}
	.st4{fill:#FFFFFF;}
</style>
<rect x="0.13" width="3000" height="3000"/>
<rect x="10" y="1810" class="st0" width="1180" height="1180"/>
<rect x="1810" y="1810" class="st1" width="1180" height="1180"/>
<rect x="1810" y="10" class="st2" width="1180" height="1180"/>
<rect x="10" y="10" class="st3" width="1180" height="1180"/>
<rect x="200" y="200" class="st4" width="800" height="800"/>
<rect x="200" y="1999.67" class="st4" width="800" height="800"/>
<rect x="2000" y="1999.67" class="st4" width="800" height="800"/>
<rect x="2000" y="200" class="st4" width="800" height="800"/>
<circle class="st3" cx="400" cy="399.67" r="100"/>
<circle class="st3" cx="400" cy="799.67" r="100"/>
<circle class="st3" cx="800" cy="799.67" r="100"/>
<circle class="st3" cx="800" cy="399.67" r="100"/>
<circle class="st0" cx="400" cy="2199.67" r="100"/>
<circle class="st0" cx="400" cy="2599.67" r="100"/>
<circle class="st0" cx="800" cy="2599.67" r="100"/>
<circle class="st0" cx="800" cy="2199.67" r="100"/>
<circle class="st1" cx="2200" cy="2199.67" r="100"/>
<circle class="st1" cx="2200" cy="2599.67" r="100"/>
<circle class="st1" cx="2600" cy="2599.67" r="100"/>
<circle class="st1" cx="2600" cy="2199.67" r="100"/>
<circle class="st2" cx="2200" cy="400" r="100"/>
<circle class="st2" cx="2200" cy="800" r="100"/>
<circle class="st2" cx="2600" cy="800" r="100"/>
<circle class="st2" cx="2600" cy="400" r="100"/>
<polygon class="st2" points="1220.13,1210 1780.13,1210 1500.13,1490 "/>
<polygon class="st1" points="1789.93,1220 1789.93,1780 1509.93,1500 "/>
<polygon class="st0" points="1780,1790 1220,1790 1500,1510 "/>
<polygon class="st3" points="1209.93,1780 1209.94,1220 1489.93,1500 "/>
<rect x="1410" y="10" class="st4" width="180" height="180"/>
<rect x="1610" y="10" class="st4" width="180" height="180"/>
<rect x="1210" y="10" class="st4" width="180" height="180"/>
<rect x="1410" y="210" class="st2" width="180" height="180"/>
<rect x="1610" y="210" class="st2" width="180" height="180"/>
<rect x="1210" y="210" class="st4" width="180" height="180"/>
<rect x="1410" y="410" class="st2" width="180" height="180"/>
<rect x="1610" y="410" class="st4" width="180" height="180"/>
<rect x="1210" y="410" class="st4" width="180" height="180"/>
<rect x="1410" y="610" class="st2" width="180" height="180"/>
<rect x="1610" y="610" class="st4" width="180" height="180"/>
<rect x="1210" y="610" class="st4" width="180" height="180"/>
<rect x="1410" y="810" class="st2" width="180" height="180"/>
<rect x="1610" y="810" class="st4" width="180" height="180"/>
<rect x="1210" y="810" class="st4" width="180" height="180"/>
<rect x="1410" y="1010" class="st2" width="180" height="180"/>
<rect x="1610" y="1010" class="st4" width="180" height="180"/>
<rect x="1210" y="1010" class="st4" width="180" height="180"/>
<rect x="2010" y="1210" class="st4" width="180" height="180"/>
<rect x="2210" y="1210" class="st4" width="180" height="180"/>
<rect x="1810" y="1210" class="st4" width="180" height="180"/>
<rect x="2010" y="1410" class="st1" width="180" height="180"/>
<rect x="2210" y="1410" class="st1" width="180" height="180"/>
<rect x="1810" y="1410" class="st1" width="180" height="180"/>
<rect x="2010" y="1610" class="st4" width="180" height="180"/>
<rect x="2210" y="1610" class="st4" width="180" height="180"/>
<rect x="1810" y="1610" class="st4" width="180" height="180"/>
<rect x="2610" y="1210" class="st4" width="180" height="180"/>
<rect x="2810" y="1210" class="st4" width="180" height="180"/>
<rect x="2410" y="1210" class="st4" width="180" height="180"/>
<rect x="2610" y="1410" class="st1" width="180" height="180"/>
<rect x="2810" y="1410" class="st4" width="180" height="180"/>
<rect x="2410" y="1410" class="st1" width="180" height="180"/>
<rect x="2610" y="1610" class="st1" width="180" height="180"/>
<rect x="2810" y="1610" class="st4" width="180" height="180"/>
<rect x="2410" y="1610" class="st4" width="180" height="180"/>
<rect x="810" y="1210" class="st4" width="180" height="180"/>
<rect x="1010" y="1210" class="st4" width="180" height="180"/>
<rect x="610" y="1210" class="st4" width="180" height="180"/>
<rect x="810" y="1410" class="st3" width="180" height="180"/>
<rect x="1010" y="1410" class="st3" width="180" height="180"/>
<rect x="610" y="1410" class="st3" width="180" height="180"/>
<rect x="810" y="1610" class="st4" width="180" height="180"/>
<rect x="1010" y="1610" class="st4" width="180" height="180"/>
<rect x="610" y="1610" class="st4" width="180" height="180"/>
<rect x="210" y="1210" class="st3" width="180" height="180"/>
<rect x="410" y="1210" class="st4" width="180" height="180"/>
<rect x="10" y="1210" class="st4" width="180" height="180"/>
<rect x="210" y="1410" class="st3" width="180" height="180"/>
<rect x="410" y="1410" class="st3" width="180" height="180"/>
<rect x="10" y="1410" class="st4" width="180" height="180"/>
<rect x="210" y="1610" class="st4" width="180" height="180"/>
<rect x="410" y="1610" class="st4" width="180" height="180"/>
<rect x="10" y="1610" class="st4" width="180" height="180"/>
<rect x="1410" y="1810" class="st0" width="180" height="180"/>
<rect x="1610" y="1805" class="st4" width="180" height="180"/>
<rect x="1210" y="1810" class="st4" width="180" height="180"/>
<rect x="1410" y="2010" class="st0" width="180" height="180"/>
<rect x="1610" y="2010" class="st4" width="180" height="180"/>
<rect x="1210" y="2010" class="st4" width="180" height="180"/>
<rect x="1410" y="2210" class="st0" width="180" height="180"/>
<rect x="1610" y="2210" class="st4" width="180" height="180"/>
<rect x="1210" y="2210" class="st4" width="180" height="180"/>
<rect x="1410" y="2410" class="st0" width="180" height="180"/>
<rect x="1610" y="2410" class="st4" width="180" height="180"/>
<rect x="1210" y="2410" class="st4" width="180" height="180"/>
<rect x="1410" y="2610" class="st0" width="180" height="180"/>
<rect x="1610" y="2610" class="st4" width="180" height="180"/>
<rect x="1210" y="2610" class="st0" width="180" height="180"/>
<rect x="1410" y="2810" class="st4" width="180" height="180"/>
<rect x="1610" y="2810" class="st4" width="180" height="180"/>
<rect x="1210" y="2810" class="st4" width="180" height="180"/>
</svg>
